<svg xmlns="http://www.w3.org/2000/svg" xmlns:xlink="http://www.w3.org/1999/xlink" viewBox="0 0 78.9541 78.9536">
<style type="text/css">
	.icon-warehouse-svg1{opacity:0.8;}
	.icon-warehouse-svg2{fill:#C5C4C4;}
	.icon-warehouse-svg3{fill:#971C1E;}
</style>
<g class="icon-warehouse-svg1">
	<path class="icon-warehouse-svg2" d="M39.4766,78.9536C17.709,78.9536,0,61.2446,0,39.4771S17.709,0,39.4766,0s39.4775,17.7095,39.4775,39.4771
		S61.2441,78.9536,39.4766,78.9536z M39.4766,2C18.8115,2,2,18.812,2,39.4771s16.8115,37.4766,37.4766,37.4766
		s37.4775-16.8115,37.4775-37.4766S60.1416,2,39.4766,2z"/>
</g>
<g>
	<g>
		<g>
			<path class="icon-warehouse-svg3" d="M58.8291,61.2622h-7.168c-0.5527,0-1-0.4473-1-1v-7.167c0-0.5527,0.4473-1,1-1h7.168c0.5527,0,1,0.4473,1,1
				v7.167C59.8291,60.8149,59.3818,61.2622,58.8291,61.2622z M52.6611,59.2622h5.168v-5.167h-5.168V59.2622z"/>
		</g>
		<g>
			<path class="icon-warehouse-svg3" d="M53.8115,54.0952h-7.167c-0.5527,0-1-0.4473-1-1v-7.168c0-0.5527,0.4473-1,1-1h7.167c0.5527,0,1,0.4473,1,1
				v7.168C54.8115,53.6479,54.3643,54.0952,53.8115,54.0952z M47.6445,52.0952h5.167v-5.168h-5.167V52.0952z"/>
		</g>
		<g>
			<path class="icon-warehouse-svg3" d="M48.0781,61.2622h-7.168c-0.5527,0-1-0.4473-1-1v-7.167c0-0.5527,0.4473-1,1-1h7.168c0.5527,0,1,0.4473,1,1
				v7.167C49.0781,60.8149,48.6309,61.2622,48.0781,61.2622z M41.9102,59.2622h5.168v-5.167h-5.168V59.2622z"/>
		</g>
	</g>
	<g>
		<path class="icon-warehouse-svg3" d="M20.125,57.6782c-0.5527,0-1-0.4473-1-1V34.7432h-1.8672c-0.4238,0-0.8018-0.2676-0.9434-0.667
			c-0.1406-0.3999-0.0146-0.8452,0.3154-1.1113l22.2188-17.9185c0.3672-0.2959,0.8887-0.2959,1.2559,0l22.2188,17.9185
			c0.3301,0.2661,0.4561,0.7114,0.3154,1.1113c-0.1416,0.3994-0.5195,0.667-0.9434,0.667h-1.8662v14.0513c0,0.5527-0.4473,1-1,1
			s-1-0.4473-1-1V33.7432c0-0.5522,0.4473-1,1-1h0.0332L39.4766,17.1094L20.0908,32.7432h0.0342c0.5527,0,1,0.4478,1,1v22.9351
			C21.125,57.231,20.6777,57.6782,20.125,57.6782z"/>
	</g>
	<g class="icon-warehouse-svg1">
		<path class="icon-warehouse-svg3" d="M27.292,57.6782c-0.5527,0-1-0.4473-1-1V33.7432c0-0.5522,0.4473-1,1-1h24.3691c0.5527,0,1,0.4478,1,1v7.8843
			c0,0.5527-0.4473,1-1,1s-1-0.4473-1-1v-6.8843H28.292v21.9351C28.292,57.231,27.8447,57.6782,27.292,57.6782z"/>
	</g>
	<g class="icon-warehouse-svg1">
		<path class="icon-warehouse-svg3" d="M51.6611,40.4771H27.292c-0.5527,0-1-0.4473-1-1c0-0.5522,0.4473-1,1-1h24.3691c0.5527,0,1,0.4478,1,1
			C52.6611,40.0298,52.2139,40.4771,51.6611,40.4771z"/>
	</g>
	<g class="icon-warehouse-svg1">
		<path class="icon-warehouse-svg3" d="M42.3438,46.2104H27.292c-0.5527,0-1-0.4473-1-1s0.4473-1,1-1h15.0518c0.5527,0,1,0.4473,1,1
			S42.8965,46.2104,42.3438,46.2104z"/>
	</g>
	<g class="icon-warehouse-svg1">
		<path class="icon-warehouse-svg3" d="M36.6104,51.9448H27.292c-0.5527,0-1-0.4473-1-1s0.4473-1,1-1h9.3184c0.5527,0,1,0.4473,1,1
			S37.1631,51.9448,36.6104,51.9448z"/>
	</g>
	<g>
		<path class="icon-warehouse-svg3" d="M36.6104,57.6782H20.125c-0.5527,0-1-0.4473-1-1s0.4473-1,1-1h16.4854c0.5527,0,1,0.4473,1,1
			S37.1631,57.6782,36.6104,57.6782z"/>
	</g>
</g>
</svg>
