<svg xmlns="http://www.w3.org/2000/svg" xmlns:xlink="http://www.w3.org/1999/xlink" viewBox="0 0 78.9541 78.9536">
<style type="text/css">
	.icon-cmyk-svg1{opacity:0.8;}
	.icon-cmyk-svg2{fill:#C5C4C4;}
	.icon-cmyk-svg3{fill:#971C1E;}
</style>
<g class="icon-cmyk-svg1">
	<path class="icon-cmyk-svg2" d="M39.4771,78.9536C17.7095,78.9536,0,61.2441,0,39.4766S17.7095,0,39.4771,0s39.4771,17.709,39.4771,39.4766
		S61.2446,78.9536,39.4771,78.9536z M39.4771,2C18.812,2,2,18.812,2,39.4766c0,20.665,16.812,37.4771,37.4771,37.4771
		s37.4771-16.812,37.4771-37.4771C76.9541,18.812,60.1421,2,39.4771,2z"/>
</g>
<g>
	<g class="icon-cmyk-svg1">
		<g>
			<path class="icon-cmyk-svg3" d="M48.7026,44.0254c-4.0947,0-7.5352-1.334-9.9482-3.8579c-0.3818-0.3989-0.3677-1.0317,0.0317-1.4136
				c0.3979-0.3818,1.0322-0.3677,1.4136,0.0317c2.0269,2.1196,4.9673,3.2397,8.5029,3.2397c6.4927,0,11.7744-5.2822,11.7744-11.7744
				s-5.2817-11.7744-11.7744-11.7744c-1.3462,0-2.666,0.2266-3.9233,0.6729c-0.521,0.1821-1.0923-0.0879-1.2769-0.6079
				c-0.1846-0.5205,0.0874-1.0918,0.6079-1.2769c1.4727-0.5229,3.0176-0.7881,4.5923-0.7881
				c7.5952,0,13.7744,6.1792,13.7744,13.7744S56.2979,44.0254,48.7026,44.0254z"/>
		</g>
		<g>
			<path class="icon-cmyk-svg3" d="M48.7026,62.4766c-7.5947,0-13.7739-6.1792-13.7739-13.7739c0-4.1011,1.334-7.5415,3.8579-9.9497
				c0.4004-0.3804,1.0327-0.3667,1.4141,0.0332s0.3662,1.0327-0.0332,1.4141c-2.1187,2.0215-3.2388,4.9614-3.2388,8.5024
				c0,6.4922,5.2817,11.7739,11.7739,11.7739s11.7744-5.2817,11.7744-11.7739c0-1.3467-0.2266-2.6675-0.6733-3.9243
				c-0.1846-0.5205,0.0869-1.0923,0.6074-1.2773s1.0923,0.0864,1.2773,0.6074c0.5234,1.4731,0.7886,3.0186,0.7886,4.5942
				C62.4771,56.2974,56.2979,62.4766,48.7026,62.4766z"/>
		</g>
		<g>
			<path class="icon-cmyk-svg3" d="M30.2515,62.4766c-7.5952,0-13.7744-6.1792-13.7744-13.7739c0-7.5952,6.1792-13.7744,13.7744-13.7744
				c4.1011,0,7.5415,1.334,9.9492,3.8579c0.3813,0.3999,0.3662,1.0327-0.0332,1.4141c-0.3994,0.3809-1.0322,0.3667-1.4141-0.0332
				c-2.021-2.1187-4.9609-3.2388-8.502-3.2388c-6.4927,0-11.7744,5.2822-11.7744,11.7744s5.2817,11.7739,11.7744,11.7739
				c1.3267,0,2.6284-0.2197,3.8682-0.6533c0.5234-0.1802,1.0918,0.0933,1.2739,0.6138c0.1826,0.5215-0.0923,1.0918-0.6138,1.2739
				C33.3271,62.2192,31.8037,62.4766,30.2515,62.4766z"/>
		</g>
		<g>
			<path class="icon-cmyk-svg3" d="M39.4771,40.4766c-0.2637,0-0.5269-0.104-0.7236-0.3096c-0.3813-0.3999-0.3662-1.0327,0.0332-1.4141
				c2.1187-2.021,3.2388-4.9609,3.2388-8.502c0-6.4927-5.2817-11.7744-11.7739-11.7744S18.4771,23.7583,18.4771,30.251
				c0,1.3462,0.2261,2.666,0.6724,3.9214c0.1846,0.5205-0.0874,1.0923-0.6074,1.2773c-0.5234,0.1831-1.0928-0.0874-1.2773-0.6074
				c-0.5225-1.4717-0.7876-3.0161-0.7876-4.5913c0-7.5952,6.1792-13.7744,13.7744-13.7744c7.5947,0,13.7739,6.1792,13.7739,13.7744
				c0,4.1011-1.334,7.5415-3.8579,9.9492C39.9736,40.3848,39.7251,40.4766,39.4771,40.4766z"/>
		</g>
	</g>
	<g>
		<path class="icon-cmyk-svg3" d="M31.0645,34.0898h-1.5229c-1.7251,0-3.1289-1.4038-3.1289-3.1294v-3.5483
			c0-1.7251,1.4038-3.1289,3.1289-3.1289h1.5229c1.1924,0,2.2651,0.6626,2.7988,1.7295l0.1216,0.2437
			c0.2466,0.4941,0.0454,1.0947-0.4487,1.3413c-0.4932,0.2466-1.0947,0.0459-1.3413-0.4487l-0.1211-0.2427
			c-0.1919-0.3838-0.5791-0.623-1.0093-0.623h-1.5229c-0.6226,0-1.1289,0.5063-1.1289,1.1289v3.5483
			c0,0.6226,0.5063,1.1294,1.1289,1.1294h1.5229c0.4302,0,0.8174-0.2393,1.0098-0.6245l0.1211-0.2422
			c0.2476-0.4937,0.8462-0.6938,1.3418-0.4473c0.4941,0.2471,0.6943,0.8477,0.4473,1.3418l-0.1211,0.2422
			C33.3296,33.4268,32.2573,34.0898,31.0645,34.0898z"/>
	</g>
	<g>
		<path class="icon-cmyk-svg3" d="M52.2515,34.0898c-0.5522,0-1-0.4478-1-1v-4.5039l-1.0068,1.5103c-0.3711,0.5566-1.293,0.5566-1.6641,0
			l-1.0068-1.5103v4.5039c0,0.5522-0.4478,1-1,1s-1-0.4478-1-1v-7.8066c0-0.4404,0.2886-0.8296,0.7104-0.957
			c0.4214-0.1294,0.877,0.0356,1.1216,0.4023l2.0068,3.0103l2.0068-3.0103c0.2446-0.3667,0.7012-0.5317,1.1216-0.4023
			c0.4219,0.1274,0.7104,0.5166,0.7104,0.957v7.8066C53.2515,33.6421,52.8037,34.0898,52.2515,34.0898z"/>
	</g>
	<g>
		<g>
			<path class="icon-cmyk-svg3" d="M30.2515,53.9604c-0.5522,0-1-0.4478-1-1v-3.1978l-2.6196-3.2744
				c-0.3452-0.4312-0.2754-1.0605,0.1563-1.4053c0.4297-0.3447,1.0601-0.2759,1.4053,0.1563l2.8389,3.5483
				c0.1421,0.1772,0.2192,0.3975,0.2192,0.6245v3.5483C31.2515,53.5127,30.8037,53.9604,30.2515,53.9604z"/>
		</g>
		<g>
			<path class="icon-cmyk-svg3" d="M30.251,50.4121c-0.2192,0-0.4399-0.0718-0.624-0.2192c-0.4316-0.3447-0.5015-0.9741-0.1563-1.4053
				l2.8384-3.5483c0.3452-0.4321,0.9751-0.5005,1.4053-0.1563c0.4316,0.3447,0.5015,0.9741,0.1563,1.4053l-2.8384,3.5483
				C30.835,50.2837,30.5439,50.4121,30.251,50.4121z"/>
		</g>
	</g>
	<g>
		<g>
			<path class="icon-cmyk-svg3" d="M46.5737,54.6704c-0.5522,0-1-0.4478-1-1v-7.8066c0-0.5522,0.4478-1,1-1s1,0.4478,1,1v7.8066
				C47.5737,54.2227,47.126,54.6704,46.5737,54.6704z"/>
		</g>
		<g>
			<path class="icon-cmyk-svg3" d="M46.5742,51.8315c-0.2783,0-0.5552-0.1157-0.7529-0.3413c-0.3638-0.416-0.3218-1.0479,0.0938-1.4111
				l5.6777-4.9678c0.4155-0.3647,1.0469-0.3218,1.4111,0.0938c0.3638,0.416,0.3218,1.0479-0.0938,1.4111l-5.6777,4.9678
				C47.0425,51.75,46.8076,51.8315,46.5742,51.8315z"/>
		</g>
		<g>
			<path class="icon-cmyk-svg3" d="M52.252,54.6704c-0.2866,0-0.5708-0.1226-0.7686-0.3599l-3.5488-4.2583
				c-0.3535-0.4243-0.2964-1.0547,0.1279-1.4082c0.4248-0.354,1.0547-0.2959,1.4082,0.1279l3.5488,4.2583
				c0.3535,0.4243,0.2964,1.0547-0.1279,1.4082C52.7046,54.5942,52.4775,54.6704,52.252,54.6704z"/>
		</g>
	</g>
</g>
</svg>
