<svg xmlns="http://www.w3.org/2000/svg" xmlns:xlink="http://www.w3.org/1999/xlink" viewBox="0 0 78.9541 78.9536">
<style type="text/css">
	.icon-checklist-svg1{opacity:0.8;}
	.icon-checklist-svg2{fill:#C5C4C4;}
	.icon-checklist-svg3{fill:#971C1E;}
</style>
<g class="icon-checklist-svg1">
	<path class="icon-checklist-svg2" d="M39.4766,78.9536C17.709,78.9536,0,61.2441,0,39.4766S17.709,0,39.4766,0s39.4775,17.709,39.4775,39.4766
		S61.2441,78.9536,39.4766,78.9536z M39.4766,2C18.8115,2,2,18.812,2,39.4766c0,20.665,16.8115,37.4771,37.4766,37.4771
		s37.4775-16.812,37.4775-37.4771C76.9541,18.812,60.1416,2,39.4766,2z"/>
</g>
<g>
	<g>
		<path class="icon-checklist-svg3" d="M43.3672,58.0771c-0.1455,0-0.2344-0.0044-0.2559-0.0054c-0.5078-0.0293-0.9131-0.4341-0.9414-0.9419
			c-0.0088-0.1543-0.1865-3.8071,2.3428-6.335l14.2275-14.2266c0.1563-0.1567,0.3604-0.2568,0.5801-0.2847
			c0.498-0.0654,1.8135-0.0615,3.2246,1.3486c0,0.0005,0.0664,0.0664,0.0664,0.0664c1.4111,1.4116,1.4131,2.7261,1.3486,3.2256
			c-0.0293,0.2192-0.1289,0.4224-0.2852,0.5786L49.4473,55.7295C47.2705,57.9058,44.2617,58.0771,43.3672,58.0771z M59.8535,38.2832
			L45.9268,52.209c-1.2031,1.2031-1.5898,2.7964-1.71,3.812c1.0195-0.1235,2.6211-0.5112,3.8164-1.7056L61.96,40.3892
			c-0.0508-0.2769-0.2207-0.7334-0.7607-1.2739l-0.0654-0.0659C60.5898,38.5063,60.1309,38.3345,59.8535,38.2832z"/>
	</g>
	<g>
		<path class="icon-checklist-svg3" d="M60.9902,43.707c-0.2559,0-0.5117-0.0977-0.707-0.293l-3.5195-3.5205c-0.3906-0.3906-0.3906-1.0239,0-1.4141
			c0.3906-0.3906,1.0234-0.3906,1.4141,0L61.6973,42c0.3906,0.3906,0.3906,1.0239,0,1.4141
			C61.502,43.6094,61.2461,43.707,60.9902,43.707z"/>
	</g>
	<g class="icon-checklist-svg1">
		<path class="icon-checklist-svg3" d="M45.9297,31.3369H33.0244c-0.5527,0-1-0.4478-1-1V19.2754c0-0.5522,0.4473-1,1-1h9.2178
			c0.5527,0,1,0.4478,1,1s-0.4473,1-1,1h-8.2178v9.0615h10.9053v-4.5308c0-0.5522,0.4473-1,1-1s1,0.4478,1,1v5.5308
			C46.9297,30.8892,46.4824,31.3369,45.9297,31.3369z"/>
	</g>
	<g>
		<path class="icon-checklist-svg3" d="M39.4766,28.5713c-0.2646,0-0.5195-0.105-0.707-0.293l-2.7646-2.7651c-0.3906-0.3906-0.3906-1.0239,0-1.4141
			c0.3906-0.3906,1.0234-0.3906,1.4141,0l1.9639,1.9639l5.7578-7.4014c0.3398-0.4346,0.9668-0.5137,1.4033-0.1758
			c0.4355,0.3394,0.5137,0.9678,0.1748,1.4033l-6.4531,8.2959c-0.1758,0.2266-0.4404,0.3667-0.7266,0.3843
			C39.5176,28.5708,39.4971,28.5713,39.4766,28.5713z"/>
	</g>
	<g class="icon-checklist-svg1">
		<path class="icon-checklist-svg3" d="M45.9297,47.0073H33.0244c-0.5527,0-1-0.4478-1-1V34.9458c0-0.5522,0.4473-1,1-1h9.2178
			c0.5527,0,1,0.4478,1,1s-0.4473,1-1,1h-8.2178v9.0615h10.9053v-4.5308c0-0.5522,0.4473-1,1-1s1,0.4478,1,1v5.5308
			C46.9297,46.5596,46.4824,47.0073,45.9297,47.0073z"/>
	</g>
	<g>
		<path class="icon-checklist-svg3" d="M39.4766,44.2422c-0.2646,0-0.5195-0.105-0.707-0.293l-2.7646-2.7656c-0.3906-0.3906-0.3906-1.0239,0-1.4141
			c0.3906-0.3906,1.0234-0.3906,1.4141,0l1.9639,1.9644l5.7578-7.4019c0.3398-0.4346,0.9668-0.5137,1.4033-0.1758
			c0.4355,0.3394,0.5137,0.9678,0.1748,1.4033l-6.4531,8.2964c-0.1758,0.2266-0.4404,0.3667-0.7266,0.3843
			C39.5176,44.2417,39.4971,44.2422,39.4766,44.2422z"/>
	</g>
	<g class="icon-checklist-svg1">
		<path class="icon-checklist-svg3" d="M45.9297,62.6782H33.0244c-0.5527,0-1-0.4478-1-1V50.6167c0-0.5522,0.4473-1,1-1h9.2178
			c0.5527,0,1,0.4478,1,1s-0.4473,1-1,1h-8.2178v9.0615h10.9053v-1.7656c0-0.5522,0.4473-1,1-1s1,0.4478,1,1v2.7656
			C46.9297,62.2305,46.4824,62.6782,45.9297,62.6782z"/>
	</g>
	<g>
		<path class="icon-checklist-svg3" d="M48.6953,56.2256c-0.2559,0-0.5117-0.0977-0.707-0.293l-3.6875-3.687c-0.3906-0.3901-0.3906-1.0234,0-1.4141
			s1.0234-0.3906,1.4141,0l3.6875,3.687c0.3906,0.3901,0.3906,1.0234,0,1.4141C49.207,56.1279,48.9512,56.2256,48.6953,56.2256z"/>
	</g>
</g>
</svg>
